<svg version="1.2" xmlns="http://www.w3.org/2000/svg" viewBox="0 0 33 32" width="33" height="32"><style>.a{fill:#8899a6}.b{fill:#ccd6dd}</style><path class="a" d="m24.7 6c-1.5 1.8-1.5 2.2-0.2 4.3 0.8 1.2 1.5 3.8 1.5 5.7 0 1.9-0.8 4.5-1.7 5.8-1.4 1.8-1.5 2.6-0.6 3.5 0.9 0.9 1.4 0.7 2.2-0.8 0.6-1.1 0.7-2.4 0.3-2.9-0.4-0.5-0.1-0.6 0.6-0.3q1.2 0.7 1.8-2.5c0.3-1.8 0.3-4.5 0-6-0.4-1.8-1-2.6-1.8-2.1-0.7 0.3-1 0.2-0.6-0.3 0.4-0.5 0.2-1.8-0.4-2.9-1-1.8-1-1.9 0.6-0.5 0.9 0.8 2.2 3.1 2.8 5 0.5 1.9 0.8 4.8 0.4 6.5-0.3 1.6-1.4 4.2-2.6 5.8-1.1 1.5-2 3.1-2 3.7 0 0.5 0.6 0.9 1.3 0.7 0.6-0.2 2.2-1.9 3.5-3.8 1.6-2.4 2.2-4.8 2.2-8.4 0-3-0.8-6.4-1.9-8.5-1-1.9-2.3-3.6-2.8-3.8-0.5-0.1-1.7 0.7-2.6 1.8zm-24.3 3.3c-0.3 0.8-0.4 4.3-0.3 7.8 0.4 6.4 0.4 6.4 3.4 6.4h3c0-14.9 0-15-2.7-15.3-1.6-0.2-3 0.2-3.4 1.1z"/><path class="b" d="m11 4.3l-4.5 4.3v14.8c7.9 7.5 9.9 8.8 10.5 8.1 0.6-0.6 0.9-7.3 0.8-15.9-0.2-8.9-0.7-15.1-1.3-15.2-0.6-0.2-3 1.6-5.5 3.9z"/><path class="a" d="m21.7 9.8c-0.4 0.6-0.3 2.3 0.3 3.7q1 2.5 0 5c-0.6 1.4-0.7 3.1-0.3 3.7 0.4 1 1 0.7 2-0.7 0.7-1.1 1.3-3.6 1.3-5.5 0-1.9-0.6-4.4-1.3-5.5-1-1.4-1.6-1.7-2-0.8z"/></svg>